<svg width="489" height="489" viewBox="0 0 489 489" fill="none" xmlns="http://www.w3.org/2000/svg">
<path d="M479.578 205.797L479.623 205.805H479.668C482.354 205.805 484.553 206.698 486.08 208.225C487.607 209.752 488.5 211.951 488.5 214.637V272.496C488.5 275.191 487.6 277.881 486.039 279.888C484.482 281.89 482.285 283.195 479.668 283.195H479.623L479.578 283.203L417.987 294.401L417.681 294.457L417.596 294.756C413.877 307.769 408.299 318.928 402.698 330.131L402.563 330.401L402.738 330.646L440.043 382.873C441.819 386.46 441.789 391.791 438.253 395.326L438.246 395.334L397.192 438.253C397.191 438.255 397.189 438.256 397.188 438.258C393.65 441.791 388.371 441.789 384.834 438.253L384.801 438.22L384.762 438.193L332.502 402.731L332.276 402.578L332.024 402.685C328.941 404.007 325.965 405.327 323.047 406.62C313.574 410.822 304.714 414.75 294.756 417.596L294.457 417.681L294.401 417.987L283.203 479.578L283.195 479.623V479.668C283.195 482.285 281.89 484.482 279.888 486.039C277.881 487.6 275.191 488.5 272.496 488.5H214.637C211.951 488.5 209.752 487.607 208.225 486.08C206.698 484.553 205.805 482.354 205.805 479.668V479.623L205.797 479.578L194.599 417.987L194.543 417.681L194.244 417.596C184.286 414.75 175.426 410.822 165.953 406.62C163.035 405.327 160.059 404.007 156.976 402.685L156.719 402.576L156.491 402.736L106.108 438.191C106.106 438.192 106.104 438.193 106.103 438.195C100.631 441.84 95.3185 441.76 91.8118 438.257C91.8104 438.256 91.8091 438.255 91.8077 438.253L50.7545 395.334L50.7467 395.326C47.2091 391.788 47.2091 386.506 50.7467 382.968L50.7772 382.938L50.802 382.902L86.2639 332.509L86.4245 332.281L86.3145 332.024C84.9928 328.94 83.6733 325.965 82.3795 323.047C78.1784 313.573 74.2495 304.714 71.4044 294.756L71.319 294.457L71.0131 294.401L9.4215 283.203L9.37715 283.195H9.33206C6.71456 283.195 4.51788 281.89 2.96099 279.888C1.39989 277.881 0.5 275.191 0.5 272.496V214.637C0.5 211.951 1.39315 209.752 2.91987 208.225C4.44659 206.698 6.64607 205.805 9.33206 205.805H9.37715L9.4215 205.797L71.0131 194.599L71.319 194.543L71.4044 194.244C74.2495 184.286 78.1784 175.427 82.3795 165.953C83.6733 163.035 84.9928 160.06 86.3145 156.976L86.4245 156.719L86.2639 156.491L50.8092 106.108C50.808 106.106 50.8068 106.105 50.8057 106.103C47.2584 100.777 48.9711 95.4427 50.8018 91.7552L93.6662 50.7544L93.6663 50.7545L93.6742 50.7467C97.2117 47.2091 102.494 47.2091 106.032 50.7467L106.062 50.7772L106.098 50.802L156.491 86.2639L156.719 86.4245L156.976 86.3145C160.06 84.9928 163.035 83.6733 165.953 82.3795C175.427 78.1784 184.286 74.2495 194.244 71.4044L194.543 71.319L194.599 71.0131L205.797 9.4215L205.805 9.37715V9.33206C205.805 6.64607 206.698 4.44659 208.225 2.91987C209.752 1.39315 211.951 0.5 214.637 0.5H272.496C275.191 0.5 277.881 1.39989 279.888 2.96099C281.89 4.51788 283.195 6.71456 283.195 9.33206V9.37715L283.203 9.4215L294.401 71.0131L294.457 71.319L294.756 71.4044C304.714 74.2495 313.573 78.1784 323.047 82.3795C325.965 83.6733 328.94 84.9928 332.024 86.3145L332.281 86.4245L332.509 86.2639L382.902 50.802L382.938 50.7772L382.968 50.7467C386.506 47.2091 391.788 47.2091 395.326 50.7468L395.334 50.7544L438.253 91.8077C438.255 91.8091 438.256 91.8104 438.257 91.8118C441.761 95.3193 441.84 100.633 438.192 106.106C438.192 106.107 438.191 106.108 438.191 106.108L402.731 158.364L402.567 158.607L402.698 158.869C408.299 170.072 413.877 181.231 417.596 194.244L417.681 194.543L417.987 194.599L479.578 205.797ZM356.985 244.5C356.985 182.621 306.357 133.882 244.5 133.882C182.643 133.882 132.015 182.621 132.015 244.5C132.015 306.368 182.632 356.985 244.5 356.985C306.368 356.985 356.985 306.368 356.985 244.5Z" stroke="#02327B" stroke-opacity="0.5"/>
</svg>
