<svg width="35" height="42" viewBox="0 0 35 42" fill="none" xmlns="http://www.w3.org/2000/svg">
<path d="M29.78 30.5651C22.9746 37.3706 11.9408 37.3706 5.13533 30.5651C-1.67011 23.7597 -1.67011 12.7259 5.13533 5.92048C11.9408 -0.884953 22.9746 -0.884953 29.78 5.92048C36.5854 12.7259 36.5854 23.7597 29.78 30.5651Z" fill="#02327B"/>
<path d="M17.4551 18.2422L29.7775 30.5645L19.5765 40.7655C18.4049 41.9371 16.5054 41.9371 15.3338 40.7655L5.13281 30.5645L17.4551 18.2422Z" fill="#02327B"/>
<circle cx="17.4568" cy="18.2439" r="13.1911" stroke="white" stroke-width="1.5"/>
<path d="M9.26394 18.2265C9.26394 17.1533 9.25799 16.08 9.26592 15.0068C9.27088 14.2867 9.27981 14.2797 9.97414 14.2738C10.7171 14.2668 11.46 14.2629 12.203 14.2777C13.4736 14.3045 14.2145 15.0623 14.2274 16.335C14.2324 16.823 14.1491 17.2931 13.8535 17.6959C13.7176 17.8823 13.7474 18.0172 13.9011 18.169C14.7135 18.9685 14.7125 20.5059 13.9418 21.5018C13.6809 21.8381 13.3377 22.0831 12.8983 22.0989C11.8102 22.1386 10.722 22.1634 9.63392 22.1743C9.29469 22.1773 9.23716 22.092 9.23517 21.6942C9.23121 20.869 9.24311 20.0427 9.24708 19.2174C9.24906 18.8871 9.26394 18.5568 9.26394 18.2265C9.26989 18.2265 9.25799 18.2265 9.26394 18.2265ZM11.702 20.4672C11.9153 20.4573 12.1345 20.4732 12.3408 20.4276C12.4876 20.3948 12.6602 20.3105 12.7455 20.1935C13.1006 19.7064 12.816 19.0409 12.2198 18.9546C11.9282 18.9129 11.6286 18.9129 11.3331 18.9149C10.9036 18.9179 10.8599 18.9695 10.8371 19.4009C10.8341 19.4664 10.8351 19.5329 10.8341 19.5983C10.8232 20.4563 10.8232 20.4563 11.702 20.4672ZM11.6564 15.968C11.6564 15.964 11.6564 15.96 11.6564 15.957C11.4918 15.957 11.3271 15.9541 11.1624 15.958C10.9293 15.963 10.8302 16.1108 10.8559 16.3161C10.8936 16.6216 10.6883 16.9817 11.0444 17.2197C11.0573 17.2277 11.0762 17.2287 11.093 17.2287C11.4709 17.2187 11.8528 17.2386 12.2248 17.19C12.5214 17.1513 12.7059 16.8319 12.682 16.5185C12.6592 16.208 12.4807 16.0136 12.1494 15.9719C11.9877 15.9511 11.8211 15.968 11.6564 15.968Z" fill="white"/>
<path d="M16.7869 18.1811C17.1996 17.3201 17.6122 16.4601 18.0258 15.5992C18.1835 15.2718 18.3482 14.9475 18.499 14.6172C18.6091 14.3771 18.7846 14.27 19.0465 14.2799C19.3103 14.2898 19.5752 14.2839 19.839 14.2889C20.0374 14.2928 20.1426 14.396 20.1515 14.5954C20.1555 14.6777 20.1574 14.76 20.1574 14.8433C20.1525 17.1227 20.1475 19.4021 20.1396 21.6815C20.1376 22.1646 20.1108 22.1963 19.6397 22.1953C18.4593 22.1924 18.6051 22.2727 18.5952 21.1598C18.5882 20.4169 18.5982 19.6729 18.5962 18.93C18.5962 18.7743 18.5773 18.6175 18.4752 18.439C18.4018 18.558 18.3174 18.6721 18.2559 18.7961C17.765 19.787 17.266 20.7749 16.7959 21.7768C16.6461 22.0952 16.4507 22.236 16.1045 22.1934C15.9577 22.1755 15.8079 22.1924 15.6591 22.1894C15.1572 22.1765 15.0938 22.1209 15.0938 21.6042C15.0938 20.0181 15.1017 18.433 15.1086 16.847C15.1116 16.1695 15.1126 15.492 15.1265 14.8156C15.1364 14.3375 15.1731 14.3027 15.6353 14.2948C16.8613 14.275 16.656 14.2928 16.661 15.2897C16.6649 16.1655 16.662 17.0404 16.6649 17.9163C16.6649 17.9966 16.6818 18.076 16.6907 18.1563C16.7225 18.1642 16.7552 18.1722 16.7869 18.1811Z" fill="white"/>
<path d="M23.8825 19.3972C23.7982 19.5053 23.696 19.6035 23.6315 19.7226C23.2774 20.3762 22.9114 21.0239 22.591 21.6945C22.4105 22.0734 22.1794 22.2063 21.7499 22.2132C21.4983 22.2077 21.2629 22.2063 21.0112 22.2061C20.7572 22.2059 20.5408 21.9432 20.6588 21.7183C21.1289 20.8285 21.6001 19.9388 22.0901 19.06C22.2071 18.8497 22.1794 18.7247 21.9859 18.6146C20.7441 17.9094 20.875 15.6359 21.6378 14.8979C21.8977 14.646 22.1774 14.4307 22.5315 14.4109C23.4698 14.3573 24.4111 14.3385 25.3505 14.3127C25.656 14.3048 25.6798 14.526 25.6788 14.7561C25.6778 15.6984 25.6818 16.6397 25.6768 17.582C25.6689 18.8705 25.649 20.159 25.6431 21.4475C25.6391 22.2172 25.6401 22.2261 24.8754 22.2162C23.9975 22.2043 24.0263 22.2728 24.0253 21.383C24.0243 20.8712 24.0273 20.3584 24.0223 19.8466C24.0213 19.7067 23.9965 19.5668 23.9826 19.428C23.9479 19.4181 23.9152 19.4071 23.8825 19.3972ZM24.0293 16.7478C24.0293 16.6824 24.0313 16.6159 24.0293 16.5504C24.0134 16.0277 23.9311 15.9553 23.4063 16.0109C23.325 16.0198 23.2417 16.0247 23.1623 16.0446C22.837 16.1249 22.714 16.3084 22.711 16.7072C22.708 17.1287 22.8439 17.342 23.1663 17.4253C23.8279 17.5949 24.0273 17.4382 24.0293 16.7478Z" fill="white"/>
</svg>
