<svg width="899" height="1414" viewBox="0 0 899 1414" fill="none" xmlns="http://www.w3.org/2000/svg">
<path d="M1386.88 594.402L1386.95 594.414H1387.02C1394.94 594.414 1401.49 597.052 1406.05 601.615C1410.61 606.178 1413.25 612.724 1413.25 620.649V787.954C1413.25 795.892 1410.6 803.823 1405.99 809.756C1401.38 815.681 1394.84 819.586 1387.02 819.586H1386.95L1386.88 819.598L1208.78 851.98L1208.32 852.063L1208.19 852.511C1197.42 890.213 1181.26 922.536 1165.07 954.924L1164.87 955.328L1165.13 955.695L1273.03 1106.76C1278.3 1117.34 1278.25 1133.13 1267.75 1143.62L1267.75 1143.63L1267.74 1143.63L1149.02 1267.75C1149.02 1267.76 1149.01 1267.76 1149.01 1267.76C1138.51 1278.25 1122.8 1278.25 1112.3 1267.75L1112.25 1267.7L1112.19 1267.66L961.078 1165.12L960.738 1164.89L960.361 1165.05C951.462 1168.86 942.869 1172.68 934.439 1176.41C907.035 1188.57 881.357 1199.95 852.511 1208.19L852.063 1208.32L851.98 1208.78L819.598 1386.88L819.586 1386.95V1387.02C819.586 1394.84 815.681 1401.38 809.756 1405.99C803.823 1410.6 795.892 1413.25 787.954 1413.25H620.649C612.724 1413.25 606.178 1410.61 601.615 1406.05C597.052 1401.49 594.414 1394.94 594.414 1387.02V1386.95L594.402 1386.88L562.02 1208.78L561.937 1208.32L561.488 1208.19C532.643 1199.95 506.965 1188.57 479.561 1176.41C471.131 1172.68 462.538 1168.86 453.639 1165.05L453.254 1164.89L452.912 1165.13L307.21 1267.66C307.207 1267.66 307.204 1267.66 307.2 1267.66C291.202 1278.33 275.443 1278.21 264.988 1267.76C264.986 1267.76 264.983 1267.75 264.981 1267.75L146.26 1143.63L146.254 1143.63L146.248 1143.62C135.747 1133.12 135.747 1117.41 146.248 1106.9L146.294 1106.86L146.331 1106.81L248.873 961.088L249.114 960.746L248.949 960.361C245.135 951.462 241.325 942.869 237.586 934.44C225.434 907.035 214.047 881.357 205.805 852.511L205.677 852.063L205.218 851.98L27.1189 819.598L27.0524 819.586H26.9847C19.1625 819.586 12.6208 815.681 8.01282 809.756C3.3985 803.823 0.75 795.892 0.75 787.954V620.649C0.75 612.724 3.38839 606.178 7.95113 601.615C12.5139 597.052 19.0597 594.414 26.9847 594.414H27.0524L27.1189 594.402L205.218 562.02L205.677 561.937L205.805 561.488C214.047 532.643 225.434 506.965 237.586 479.561C241.325 471.131 245.135 462.538 248.949 453.639L249.114 453.254L248.873 452.912L146.342 307.21C146.34 307.207 146.338 307.205 146.336 307.202C135.822 291.422 140.986 275.63 146.33 264.902L270.366 146.26L270.372 146.254L270.378 146.248C280.879 135.747 296.595 135.747 307.096 146.248L307.141 146.294L307.194 146.331L452.912 248.873L453.254 249.114L453.639 248.949C462.538 245.135 471.131 241.325 479.561 237.586C506.965 225.434 532.643 214.047 561.488 205.805L561.937 205.677L562.02 205.218L594.402 27.1189L594.414 27.0524V26.9847C594.414 19.0597 597.052 12.5139 601.615 7.95113C606.178 3.38839 612.724 0.75 620.649 0.75H787.954C795.892 0.75 803.823 3.3985 809.756 8.01282C815.681 12.6208 819.586 19.1625 819.586 26.9847V27.0524L819.598 27.1189L851.98 205.218L852.063 205.677L852.511 205.805C881.357 214.047 907.035 225.434 934.44 237.586C942.869 241.325 951.462 245.135 960.361 248.949L960.746 249.114L961.088 248.873L1106.81 146.331L1106.86 146.294L1106.9 146.248C1117.41 135.747 1133.12 135.747 1143.62 146.248L1143.63 146.254L1143.63 146.26L1267.75 264.981C1267.75 264.983 1267.76 264.986 1267.76 264.988C1278.21 275.444 1278.33 291.206 1267.66 307.207C1267.66 307.208 1267.66 307.209 1267.66 307.21L1165.12 458.319L1164.87 458.683L1165.07 459.076C1181.26 491.464 1197.42 523.787 1208.19 561.488L1208.32 561.937L1208.78 562.02L1386.88 594.402ZM1031.57 707C1031.57 528.47 885.497 387.83 707 387.83C528.503 387.83 382.433 528.47 382.433 707C382.433 885.513 528.487 1031.57 707 1031.57C885.513 1031.57 1031.57 885.513 1031.57 707Z" stroke="#02327B" stroke-opacity="0.21" stroke-width="1.5"/>
</svg>
