<svg width="141" height="52" viewBox="0 0 141 52" fill="none" xmlns="http://www.w3.org/2000/svg">
<path fill-rule="evenodd" clip-rule="evenodd" d="M34.5488 24.8153H41.3499L41.3721 9.32223C41.3721 8.98142 41.3352 8.60414 41.4971 8.29762C41.7129 7.86128 42.164 7.55693 42.6663 7.55693H42.7427H65.2992V1.00326H41.4628H41.2987H41.1172C37.7629 1.00326 34.9825 3.52878 34.5852 6.79454L34.5314 7.30208V7.6112V7.90035L34.5488 24.8153ZM0.0272357 18.2812H22.5863L22.8533 18.2469C23.4711 18.1561 23.9565 17.6121 23.9565 16.94V13.7503H6.92173H6.59785C3.24134 13.7503 0.463568 11.22 0.0467722 7.97112C-0.00706395 7.61077 -0.00706379 7.21091 0.0103027 6.85316V1.05231H6.83099V5.37223L6.84836 5.91667C6.84836 6.65474 7.4983 7.2478 8.22162 7.2109H23.9348L23.92 1.01758H30.7603V17.9178C30.775 18.2265 30.7603 18.7292 30.7238 19.0331C30.3092 22.2867 27.5292 24.8144 24.1723 24.8144H23.8462H0.0272357V18.2812ZM111.133 1.00326H117.755V9.81284H121.582L130.945 1.00326H140.745L127.245 12.8455L140.672 24.8544H130.872L121.582 16.0622H117.755V24.8544H111.133V1.00326ZM68.1134 1.00326H80.6915L87.8018 16.7612L94.9116 0.986328C99.1512 0.986328 103.339 1.00326 107.58 1.00326V24.8349H100.973V7.62813H99.0948L91.3936 24.8349H84.21L76.5236 7.62813H74.7192V24.8349H68.1139C68.1139 16.891 68.0943 8.9671 68.0943 1.01802H68.1139V1.00326H68.1134Z" fill="black"/>
<path fill-rule="evenodd" clip-rule="evenodd" d="M0.015625 29.1658H6.18681V43.6633C6.15251 44.4036 6.54716 45.1269 7.47149 45.1638H21.2188C21.903 45.2007 22.5013 44.622 22.5013 43.9356L22.5183 29.1484H28.6551V44.8378V45.3965V45.4187L28.6187 45.8871C28.2383 48.9002 25.6394 51.2664 22.5183 51.2664H6.15251C3.01178 51.2664 0.432424 48.9007 0.0525317 45.8871L0.0160622 45.4187V45.3965V44.8378V29.1658H0.015625ZM43.721 29.1484L50.3263 43.771L56.9291 29.1658H68.786V51.266H62.6322V35.2875H60.8643L53.6828 51.266H46.9703L39.7862 35.2875H38.1095V51.266H31.9552C31.9552 43.8813 31.9383 36.5136 31.9383 29.1484H43.721ZM83.7468 29.1484L90.3696 43.771L96.9719 29.1658H108.81V51.266H102.658V35.2875H100.885L93.7065 51.266H87.0104L79.8316 35.2875H78.1522V51.266H71.9784V29.1484H83.7468ZM118.285 40.1275V43.5405V43.9351C118.302 44.6215 118.896 45.1807 119.567 45.146H133.317C134.018 45.1634 134.616 44.6215 134.616 43.9182V43.158H140.731V44.8204C140.768 45.3818 140.714 45.9015 140.589 46.4654C140.028 48.9167 137.988 50.8518 135.465 51.2121C135.082 51.266 134.69 51.2855 134.29 51.2855H118.538C117.976 51.2855 117.437 51.2464 116.876 51.1214C114.387 50.56 112.457 48.4517 112.131 45.8672C112.072 45.5263 112.072 45.1634 112.094 44.8204V40.1271V35.6674C112.072 35.3244 112.072 34.964 112.131 34.6184C112.474 31.9314 114.531 29.7806 117.165 29.3126C117.616 29.2218 118.084 29.2044 118.538 29.2044H134.29C134.616 29.2044 134.938 29.2044 135.264 29.2387C137.951 29.5305 140.136 31.585 140.643 34.2229C140.732 34.7088 140.751 35.1425 140.731 35.667V37.1995H134.616V36.5691C134.616 36.2995 134.526 36.0277 134.361 35.8289C134.126 35.5228 133.714 35.324 133.317 35.3413H119.567H119.332C118.753 35.4321 118.32 35.917 118.285 36.5131V36.8561V40.1275Z" fill="#F39420"/>
</svg>
