<svg width="140" height="74" viewBox="0 0 140 74" fill="none" xmlns="http://www.w3.org/2000/svg">
<path fill-rule="evenodd" clip-rule="evenodd" d="M70 0C108.541 0 140 16.6173 140 37C140 57.3827 108.541 74 70 74C31.4588 74 0 57.3827 0 37C0 16.6173 31.4588 0 70 0ZM70 3.11063C106.318 3.11063 135.882 18.3363 135.882 37C135.882 55.6637 106.318 70.8894 70 70.8894C33.6824 70.8894 4.11765 55.6637 4.11765 37C4.11765 18.3363 33.7647 3.11063 70 3.11063ZM20.9176 48.4602V25.0487H27.8353V33.4801H35.4941V25.0487H42.4118V48.4602H35.4941V39.1283H27.8353V48.4602H20.9176ZM67.5294 25.0487V48.4602H60.6118V30.6969H56.2471V39.9469C56.2471 42.6482 55.8353 45.104 53.7765 47.0686C51.7176 49.115 47.3529 49.0332 44.6353 48.4602V42.812C44.9647 42.8938 45.7059 43.0575 46.2823 43.0575C49.247 43.0575 49.3294 40.2743 49.3294 37.9823V25.0487H67.5294ZM70.0824 48.4602L73.5412 25.0487H80.4588L84.4118 38.719L88.3647 25.0487H95.2823L98.7412 48.4602H92.0706L90.4235 35.6903L86.7176 48.4602H82.1059L78.4 35.6903L76.7529 48.4602H70.0824ZM101.294 48.4602V25.0487H108.212V34.3805L114.965 25.0487H123.035L114.059 36.3451L123.2 48.3783H114.635L108.129 38.8009V48.4602H101.294ZM70 6.22124C86.9647 6.22124 102.447 9.65929 113.647 15.1438C124.929 20.7102 131.929 28.4049 131.929 36.9181C131.929 45.4314 124.929 53.1261 113.647 58.6925C102.447 64.177 87.0471 67.615 70 67.615C53.0353 67.615 37.5529 64.177 26.3529 58.6925C15.0706 53.1261 8.07058 45.4314 8.07058 36.9181C8.07058 28.4049 15.0706 20.7102 26.3529 15.1438C37.5529 9.65929 53.0353 6.22124 70 6.22124ZM70 6.95796C53.1176 6.95796 37.8 10.3142 26.6823 15.7987C15.6471 21.2013 8.81176 28.7323 8.81176 36.9181C8.81176 45.104 15.6471 52.635 26.6823 58.0376C37.8 63.5221 53.1176 66.8783 70 66.8783C86.8824 66.8783 102.2 63.5221 113.318 58.0376C124.353 52.635 131.188 45.104 131.188 36.9181C131.188 28.7323 124.353 21.2013 113.318 15.7987C102.282 10.3142 86.8824 6.95796 70 6.95796Z" fill="#015292"/>
</svg>
